{
	"asset":{
		"generator":"Khronos glTF Blender I/O v3.6.27",
		"version":"2.0"
	},
	"scene":0,
	"scenes":[
		{
			"name":"Scene",
			"nodes":[
				0,
				1,
				2,
				3,
				4,
				5,
				6,
				7,
				8,
				9,
				10,
				11,
				12,
				13,
				14,
				15,
				16,
				17,
				18,
				19
			]
		}
	],
	"nodes":[
		{
			"mesh":0,
			"name":"floor"
		},
		{
			"mesh":1,
			"name":"roof_e",
			"translation":[
				0,
				2,
				0
			]
		},
		{
			"mesh":2,
			"name":"roof_w",
			"translation":[
				0,
				2,
				0
			]
		},
		{
			"mesh":3,
			"name":"wall_e",
			"translation":[
				0,
				2,
				0
			]
		},
		{
			"mesh":4,
			"name":"wall_n",
			"translation":[
				0,
				2,
				0
			]
		},
		{
			"mesh":5,
			"name":"wall_s",
			"translation":[
				0,
				2,
				0
			]
		},
		{
			"mesh":6,
			"name":"wall_w",
			"translation":[
				0,
				2,
				0
			]
		},
		{
			"mesh":7,
			"name":"vertical_sw",
			"translation":[
				-7.375,
				2,
				14.875
			]
		},
		{
			"mesh":8,
			"name":"horizontal_s",
			"translation":[
				0,
				3.875,
				14.875
			]
		},
		{
			"mesh":9,
			"name":"horizontal_ml",
			"translation":[
				0,
				3.875,
				0
			]
		},
		{
			"mesh":10,
			"name":"vertical_nw",
			"translation":[
				-7.375,
				2,
				-14.875
			]
		},
		{
			"mesh":11,
			"name":"vertical_ne",
			"translation":[
				7.375,
				2,
				14.875
			]
		},
		{
			"mesh":12,
			"name":"vertical_se",
			"translation":[
				7.375,
				2,
				-14.875
			]
		},
		{
			"mesh":13,
			"name":"horizontal_n",
			"translation":[
				0,
				3.875,
				-14.875
			]
		},
		{
			"mesh":14,
			"name":"horizontal_e",
			"translation":[
				7.375,
				3.875,
				0
			]
		},
		{
			"mesh":15,
			"name":"horizontal_w",
			"translation":[
				-7.375,
				3.875,
				0
			]
		},
		{
			"mesh":16,
			"name":"horizontal_mu",
			"translation":[
				0,
				5.875,
				0
			]
		},
		{
			"mesh":17,
			"name":"triangle_m",
			"translation":[
				0,
				4.8125,
				0
			]
		},
		{
			"mesh":18,
			"name":"triangle_s",
			"translation":[
				0,
				4.8125,
				14.874561309814453
			]
		},
		{
			"mesh":19,
			"name":"triangle_n",
			"translation":[
				0,
				4.8125,
				-14.875
			]
		}
	],
	"materials":[
		{
			"doubleSided":true,
			"name":"Material",
			"pbrMetallicRoughness":{
				"baseColorFactor":[
					0.800000011920929,
					0.800000011920929,
					0.800000011920929,
					1
				],
				"metallicFactor":0,
				"roughnessFactor":0.4000000059604645
			}
		}
	],
	"meshes":[
		{
			"name":"Plane",
			"primitives":[
				{
					"attributes":{
						"POSITION":0,
						"NORMAL":1,
						"TEXCOORD_0":2
					},
					"indices":3
				}
			]
		},
		{
			"name":"Cube.002",
			"primitives":[
				{
					"attributes":{
						"POSITION":4,
						"NORMAL":5,
						"TEXCOORD_0":6
					},
					"indices":7,
					"material":0
				}
			]
		},
		{
			"name":"Cube.001",
			"primitives":[
				{
					"attributes":{
						"POSITION":8,
						"NORMAL":9,
						"TEXCOORD_0":10
					},
					"indices":11,
					"material":0
				}
			]
		},
		{
			"name":"Cube.005",
			"primitives":[
				{
					"attributes":{
						"POSITION":12,
						"NORMAL":13,
						"TEXCOORD_0":14
					},
					"indices":15,
					"material":0
				}
			]
		},
		{
			"name":"Cube.004",
			"primitives":[
				{
					"attributes":{
						"POSITION":16,
						"NORMAL":17,
						"TEXCOORD_0":18
					},
					"indices":19,
					"material":0
				}
			]
		},
		{
			"name":"Cube.003",
			"primitives":[
				{
					"attributes":{
						"POSITION":20,
						"NORMAL":21,
						"TEXCOORD_0":22
					},
					"indices":23,
					"material":0
				}
			]
		},
		{
			"name":"Cube.006",
			"primitives":[
				{
					"attributes":{
						"POSITION":24,
						"NORMAL":25,
						"TEXCOORD_0":26
					},
					"indices":27,
					"material":0
				}
			]
		},
		{
			"name":"Cube.007",
			"primitives":[
				{
					"attributes":{
						"POSITION":28,
						"NORMAL":29,
						"TEXCOORD_0":30
					},
					"indices":31
				}
			]
		},
		{
			"name":"Cube.008",
			"primitives":[
				{
					"attributes":{
						"POSITION":32,
						"NORMAL":33,
						"TEXCOORD_0":34
					},
					"indices":35
				}
			]
		},
		{
			"name":"Cube.009",
			"primitives":[
				{
					"attributes":{
						"POSITION":36,
						"NORMAL":37,
						"TEXCOORD_0":38
					},
					"indices":35
				}
			]
		},
		{
			"name":"Cube.011",
			"primitives":[
				{
					"attributes":{
						"POSITION":39,
						"NORMAL":40,
						"TEXCOORD_0":41
					},
					"indices":35
				}
			]
		},
		{
			"name":"Cube.012",
			"primitives":[
				{
					"attributes":{
						"POSITION":42,
						"NORMAL":43,
						"TEXCOORD_0":44
					},
					"indices":35
				}
			]
		},
		{
			"name":"Cube.013",
			"primitives":[
				{
					"attributes":{
						"POSITION":45,
						"NORMAL":46,
						"TEXCOORD_0":47
					},
					"indices":35
				}
			]
		},
		{
			"name":"Cube.014",
			"primitives":[
				{
					"attributes":{
						"POSITION":48,
						"NORMAL":49,
						"TEXCOORD_0":50
					},
					"indices":35
				}
			]
		},
		{
			"name":"Cube.015",
			"primitives":[
				{
					"attributes":{
						"POSITION":51,
						"NORMAL":52,
						"TEXCOORD_0":53
					},
					"indices":35
				}
			]
		},
		{
			"name":"Cube.016",
			"primitives":[
				{
					"attributes":{
						"POSITION":54,
						"NORMAL":55,
						"TEXCOORD_0":56
					},
					"indices":35
				}
			]
		},
		{
			"name":"Cube.017",
			"primitives":[
				{
					"attributes":{
						"POSITION":57,
						"NORMAL":58,
						"TEXCOORD_0":59
					},
					"indices":35
				}
			]
		},
		{
			"name":"Cube",
			"primitives":[
				{
					"attributes":{
						"POSITION":60,
						"NORMAL":61,
						"TEXCOORD_0":62
					},
					"indices":63
				}
			]
		},
		{
			"name":"Cube.010",
			"primitives":[
				{
					"attributes":{
						"POSITION":64,
						"NORMAL":65,
						"TEXCOORD_0":66
					},
					"indices":63
				}
			]
		},
		{
			"name":"Cube.018",
			"primitives":[
				{
					"attributes":{
						"POSITION":67,
						"NORMAL":68,
						"TEXCOORD_0":69
					},
					"indices":63
				}
			]
		}
	],
	"accessors":[
		{
			"bufferView":0,
			"componentType":5126,
			"count":4,
			"max":[
				7.5,
				0,
				15
			],
			"min":[
				-7.5,
				0,
				-15
			],
			"type":"VEC3"
		},
		{
			"bufferView":1,
			"componentType":5126,
			"count":4,
			"type":"VEC3"
		},
		{
			"bufferView":2,
			"componentType":5126,
			"count":4,
			"type":"VEC2"
		},
		{
			"bufferView":3,
			"componentType":5123,
			"count":6,
			"type":"SCALAR"
		},
		{
			"bufferView":4,
			"componentType":5126,
			"count":4,
			"max":[
				7.5,
				4,
				15
			],
			"min":[
				0,
				2,
				-15
			],
			"type":"VEC3"
		},
		{
			"bufferView":5,
			"componentType":5126,
			"count":4,
			"type":"VEC3"
		},
		{
			"bufferView":6,
			"componentType":5126,
			"count":4,
			"type":"VEC2"
		},
		{
			"bufferView":7,
			"componentType":5123,
			"count":6,
			"type":"SCALAR"
		},
		{
			"bufferView":8,
			"componentType":5126,
			"count":4,
			"max":[
				0,
				4,
				15
			],
			"min":[
				-7.5,
				2,
				-15
			],
			"type":"VEC3"
		},
		{
			"bufferView":9,
			"componentType":5126,
			"count":4,
			"type":"VEC3"
		},
		{
			"bufferView":10,
			"componentType":5126,
			"count":4,
			"type":"VEC2"
		},
		{
			"bufferView":11,
			"componentType":5123,
			"count":6,
			"type":"SCALAR"
		},
		{
			"bufferView":12,
			"componentType":5126,
			"count":4,
			"max":[
				7.5,
				2,
				15
			],
			"min":[
				7.5,
				-2,
				-15
			],
			"type":"VEC3"
		},
		{
			"bufferView":13,
			"componentType":5126,
			"count":4,
			"type":"VEC3"
		},
		{
			"bufferView":14,
			"componentType":5126,
			"count":4,
			"type":"VEC2"
		},
		{
			"bufferView":15,
			"componentType":5123,
			"count":6,
			"type":"SCALAR"
		},
		{
			"bufferView":16,
			"componentType":5126,
			"count":11,
			"max":[
				7.5,
				4,
				-15
			],
			"min":[
				-7.5,
				-2,
				-15
			],
			"type":"VEC3"
		},
		{
			"bufferView":17,
			"componentType":5126,
			"count":11,
			"type":"VEC3"
		},
		{
			"bufferView":18,
			"componentType":5126,
			"count":11,
			"type":"VEC2"
		},
		{
			"bufferView":19,
			"componentType":5123,
			"count":15,
			"type":"SCALAR"
		},
		{
			"bufferView":20,
			"componentType":5126,
			"count":5,
			"max":[
				7.5,
				4,
				15
			],
			"min":[
				-7.5,
				-2,
				15
			],
			"type":"VEC3"
		},
		{
			"bufferView":21,
			"componentType":5126,
			"count":5,
			"type":"VEC3"
		},
		{
			"bufferView":22,
			"componentType":5126,
			"count":5,
			"type":"VEC2"
		},
		{
			"bufferView":23,
			"componentType":5123,
			"count":9,
			"type":"SCALAR"
		},
		{
			"bufferView":24,
			"componentType":5126,
			"count":4,
			"max":[
				-7.5,
				2,
				15
			],
			"min":[
				-7.5,
				-2,
				-15
			],
			"type":"VEC3"
		},
		{
			"bufferView":25,
			"componentType":5126,
			"count":4,
			"type":"VEC3"
		},
		{
			"bufferView":26,
			"componentType":5126,
			"count":4,
			"type":"VEC2"
		},
		{
			"bufferView":27,
			"componentType":5123,
			"count":6,
			"type":"SCALAR"
		},
		{
			"bufferView":28,
			"componentType":5126,
			"count":24,
			"max":[
				0.13899116218090057,
				2.014127016067505,
				0.125
			],
			"min":[
				-0.125,
				-2,
				-0.1302119344472885
			],
			"type":"VEC3"
		},
		{
			"bufferView":29,
			"componentType":5126,
			"count":24,
			"type":"VEC3"
		},
		{
			"bufferView":30,
			"componentType":5126,
			"count":24,
			"type":"VEC2"
		},
		{
			"bufferView":31,
			"componentType":5123,
			"count":36,
			"type":"SCALAR"
		},
		{
			"bufferView":32,
			"componentType":5126,
			"count":24,
			"max":[
				7.5,
				0.125,
				0.125
			],
			"min":[
				-7.5,
				-0.125,
				-0.125
			],
			"type":"VEC3"
		},
		{
			"bufferView":33,
			"componentType":5126,
			"count":24,
			"type":"VEC3"
		},
		{
			"bufferView":34,
			"componentType":5126,
			"count":24,
			"type":"VEC2"
		},
		{
			"bufferView":35,
			"componentType":5123,
			"count":36,
			"type":"SCALAR"
		},
		{
			"bufferView":36,
			"componentType":5126,
			"count":24,
			"max":[
				0.125,
				0.125,
				15
			],
			"min":[
				-0.125,
				-0.125,
				-15
			],
			"type":"VEC3"
		},
		{
			"bufferView":37,
			"componentType":5126,
			"count":24,
			"type":"VEC3"
		},
		{
			"bufferView":38,
			"componentType":5126,
			"count":24,
			"type":"VEC2"
		},
		{
			"bufferView":39,
			"componentType":5126,
			"count":24,
			"max":[
				0.125,
				2,
				0.125
			],
			"min":[
				-0.125,
				-2,
				-0.125
			],
			"type":"VEC3"
		},
		{
			"bufferView":40,
			"componentType":5126,
			"count":24,
			"type":"VEC3"
		},
		{
			"bufferView":41,
			"componentType":5126,
			"count":24,
			"type":"VEC2"
		},
		{
			"bufferView":42,
			"componentType":5126,
			"count":24,
			"max":[
				0.125,
				2,
				0.125
			],
			"min":[
				-0.125,
				-2,
				-0.125
			],
			"type":"VEC3"
		},
		{
			"bufferView":43,
			"componentType":5126,
			"count":24,
			"type":"VEC3"
		},
		{
			"bufferView":44,
			"componentType":5126,
			"count":24,
			"type":"VEC2"
		},
		{
			"bufferView":45,
			"componentType":5126,
			"count":24,
			"max":[
				0.125,
				2,
				0.125
			],
			"min":[
				-0.125,
				-2,
				-0.125
			],
			"type":"VEC3"
		},
		{
			"bufferView":46,
			"componentType":5126,
			"count":24,
			"type":"VEC3"
		},
		{
			"bufferView":47,
			"componentType":5126,
			"count":24,
			"type":"VEC2"
		},
		{
			"bufferView":48,
			"componentType":5126,
			"count":24,
			"max":[
				7.5,
				0.125,
				0.125
			],
			"min":[
				-7.5,
				-0.125,
				-0.125
			],
			"type":"VEC3"
		},
		{
			"bufferView":49,
			"componentType":5126,
			"count":24,
			"type":"VEC3"
		},
		{
			"bufferView":50,
			"componentType":5126,
			"count":24,
			"type":"VEC2"
		},
		{
			"bufferView":51,
			"componentType":5126,
			"count":24,
			"max":[
				0.125,
				0.125,
				15
			],
			"min":[
				-0.125,
				-0.125,
				-15
			],
			"type":"VEC3"
		},
		{
			"bufferView":52,
			"componentType":5126,
			"count":24,
			"type":"VEC3"
		},
		{
			"bufferView":53,
			"componentType":5126,
			"count":24,
			"type":"VEC2"
		},
		{
			"bufferView":54,
			"componentType":5126,
			"count":24,
			"max":[
				0.125,
				0.125,
				15
			],
			"min":[
				-0.125,
				-0.125,
				-15
			],
			"type":"VEC3"
		},
		{
			"bufferView":55,
			"componentType":5126,
			"count":24,
			"type":"VEC3"
		},
		{
			"bufferView":56,
			"componentType":5126,
			"count":24,
			"type":"VEC2"
		},
		{
			"bufferView":57,
			"componentType":5126,
			"count":24,
			"max":[
				0.125,
				0.125,
				15
			],
			"min":[
				-0.125,
				-0.125,
				-15
			],
			"type":"VEC3"
		},
		{
			"bufferView":58,
			"componentType":5126,
			"count":24,
			"type":"VEC3"
		},
		{
			"bufferView":59,
			"componentType":5126,
			"count":24,
			"type":"VEC2"
		},
		{
			"bufferView":60,
			"componentType":5126,
			"count":200,
			"max":[
				7.5,
				1.0625,
				0.12543906271457672
			],
			"min":[
				-7.5,
				-1.0625001192092896,
				-0.125
			],
			"type":"VEC3"
		},
		{
			"bufferView":61,
			"componentType":5126,
			"count":200,
			"type":"VEC3"
		},
		{
			"bufferView":62,
			"componentType":5126,
			"count":200,
			"type":"VEC2"
		},
		{
			"bufferView":63,
			"componentType":5123,
			"count":378,
			"type":"SCALAR"
		},
		{
			"bufferView":64,
			"componentType":5126,
			"count":200,
			"max":[
				7.5,
				1.0625,
				0.12543906271457672
			],
			"min":[
				-7.5,
				-1.0625001192092896,
				-0.125
			],
			"type":"VEC3"
		},
		{
			"bufferView":65,
			"componentType":5126,
			"count":200,
			"type":"VEC3"
		},
		{
			"bufferView":66,
			"componentType":5126,
			"count":200,
			"type":"VEC2"
		},
		{
			"bufferView":67,
			"componentType":5126,
			"count":200,
			"max":[
				7.5,
				1.0625,
				0.12543906271457672
			],
			"min":[
				-7.5,
				-1.0625001192092896,
				-0.125
			],
			"type":"VEC3"
		},
		{
			"bufferView":68,
			"componentType":5126,
			"count":200,
			"type":"VEC3"
		},
		{
			"bufferView":69,
			"componentType":5126,
			"count":200,
			"type":"VEC2"
		}
	],
	"bufferViews":[
		{
			"buffer":0,
			"byteLength":48,
			"byteOffset":0,
			"target":34962
		},
		{
			"buffer":0,
			"byteLength":48,
			"byteOffset":48,
			"target":34962
		},
		{
			"buffer":0,
			"byteLength":32,
			"byteOffset":96,
			"target":34962
		},
		{
			"buffer":0,
			"byteLength":12,
			"byteOffset":128,
			"target":34963
		},
		{
			"buffer":0,
			"byteLength":48,
			"byteOffset":140,
			"target":34962
		},
		{
			"buffer":0,
			"byteLength":48,
			"byteOffset":188,
			"target":34962
		},
		{
			"buffer":0,
			"byteLength":32,
			"byteOffset":236,
			"target":34962
		},
		{
			"buffer":0,
			"byteLength":12,
			"byteOffset":268,
			"target":34963
		},
		{
			"buffer":0,
			"byteLength":48,
			"byteOffset":280,
			"target":34962
		},
		{
			"buffer":0,
			"byteLength":48,
			"byteOffset":328,
			"target":34962
		},
		{
			"buffer":0,
			"byteLength":32,
			"byteOffset":376,
			"target":34962
		},
		{
			"buffer":0,
			"byteLength":12,
			"byteOffset":408,
			"target":34963
		},
		{
			"buffer":0,
			"byteLength":48,
			"byteOffset":420,
			"target":34962
		},
		{
			"buffer":0,
			"byteLength":48,
			"byteOffset":468,
			"target":34962
		},
		{
			"buffer":0,
			"byteLength":32,
			"byteOffset":516,
			"target":34962
		},
		{
			"buffer":0,
			"byteLength":12,
			"byteOffset":548,
			"target":34963
		},
		{
			"buffer":0,
			"byteLength":132,
			"byteOffset":560,
			"target":34962
		},
		{
			"buffer":0,
			"byteLength":132,
			"byteOffset":692,
			"target":34962
		},
		{
			"buffer":0,
			"byteLength":88,
			"byteOffset":824,
			"target":34962
		},
		{
			"buffer":0,
			"byteLength":30,
			"byteOffset":912,
			"target":34963
		},
		{
			"buffer":0,
			"byteLength":60,
			"byteOffset":944,
			"target":34962
		},
		{
			"buffer":0,
			"byteLength":60,
			"byteOffset":1004,
			"target":34962
		},
		{
			"buffer":0,
			"byteLength":40,
			"byteOffset":1064,
			"target":34962
		},
		{
			"buffer":0,
			"byteLength":18,
			"byteOffset":1104,
			"target":34963
		},
		{
			"buffer":0,
			"byteLength":48,
			"byteOffset":1124,
			"target":34962
		},
		{
			"buffer":0,
			"byteLength":48,
			"byteOffset":1172,
			"target":34962
		},
		{
			"buffer":0,
			"byteLength":32,
			"byteOffset":1220,
			"target":34962
		},
		{
			"buffer":0,
			"byteLength":12,
			"byteOffset":1252,
			"target":34963
		},
		{
			"buffer":0,
			"byteLength":288,
			"byteOffset":1264,
			"target":34962
		},
		{
			"buffer":0,
			"byteLength":288,
			"byteOffset":1552,
			"target":34962
		},
		{
			"buffer":0,
			"byteLength":192,
			"byteOffset":1840,
			"target":34962
		},
		{
			"buffer":0,
			"byteLength":72,
			"byteOffset":2032,
			"target":34963
		},
		{
			"buffer":0,
			"byteLength":288,
			"byteOffset":2104,
			"target":34962
		},
		{
			"buffer":0,
			"byteLength":288,
			"byteOffset":2392,
			"target":34962
		},
		{
			"buffer":0,
			"byteLength":192,
			"byteOffset":2680,
			"target":34962
		},
		{
			"buffer":0,
			"byteLength":72,
			"byteOffset":2872,
			"target":34963
		},
		{
			"buffer":0,
			"byteLength":288,
			"byteOffset":2944,
			"target":34962
		},
		{
			"buffer":0,
			"byteLength":288,
			"byteOffset":3232,
			"target":34962
		},
		{
			"buffer":0,
			"byteLength":192,
			"byteOffset":3520,
			"target":34962
		},
		{
			"buffer":0,
			"byteLength":288,
			"byteOffset":3712,
			"target":34962
		},
		{
			"buffer":0,
			"byteLength":288,
			"byteOffset":4000,
			"target":34962
		},
		{
			"buffer":0,
			"byteLength":192,
			"byteOffset":4288,
			"target":34962
		},
		{
			"buffer":0,
			"byteLength":288,
			"byteOffset":4480,
			"target":34962
		},
		{
			"buffer":0,
			"byteLength":288,
			"byteOffset":4768,
			"target":34962
		},
		{
			"buffer":0,
			"byteLength":192,
			"byteOffset":5056,
			"target":34962
		},
		{
			"buffer":0,
			"byteLength":288,
			"byteOffset":5248,
			"target":34962
		},
		{
			"buffer":0,
			"byteLength":288,
			"byteOffset":5536,
			"target":34962
		},
		{
			"buffer":0,
			"byteLength":192,
			"byteOffset":5824,
			"target":34962
		},
		{
			"buffer":0,
			"byteLength":288,
			"byteOffset":6016,
			"target":34962
		},
		{
			"buffer":0,
			"byteLength":288,
			"byteOffset":6304,
			"target":34962
		},
		{
			"buffer":0,
			"byteLength":192,
			"byteOffset":6592,
			"target":34962
		},
		{
			"buffer":0,
			"byteLength":288,
			"byteOffset":6784,
			"target":34962
		},
		{
			"buffer":0,
			"byteLength":288,
			"byteOffset":7072,
			"target":34962
		},
		{
			"buffer":0,
			"byteLength":192,
			"byteOffset":7360,
			"target":34962
		},
		{
			"buffer":0,
			"byteLength":288,
			"byteOffset":7552,
			"target":34962
		},
		{
			"buffer":0,
			"byteLength":288,
			"byteOffset":7840,
			"target":34962
		},
		{
			"buffer":0,
			"byteLength":192,
			"byteOffset":8128,
			"target":34962
		},
		{
			"buffer":0,
			"byteLength":288,
			"byteOffset":8320,
			"target":34962
		},
		{
			"buffer":0,
			"byteLength":288,
			"byteOffset":8608,
			"target":34962
		},
		{
			"buffer":0,
			"byteLength":192,
			"byteOffset":8896,
			"target":34962
		},
		{
			"buffer":0,
			"byteLength":2400,
			"byteOffset":9088,
			"target":34962
		},
		{
			"buffer":0,
			"byteLength":2400,
			"byteOffset":11488,
			"target":34962
		},
		{
			"buffer":0,
			"byteLength":1600,
			"byteOffset":13888,
			"target":34962
		},
		{
			"buffer":0,
			"byteLength":756,
			"byteOffset":15488,
			"target":34963
		},
		{
			"buffer":0,
			"byteLength":2400,
			"byteOffset":16244,
			"target":34962
		},
		{
			"buffer":0,
			"byteLength":2400,
			"byteOffset":18644,
			"target":34962
		},
		{
			"buffer":0,
			"byteLength":1600,
			"byteOffset":21044,
			"target":34962
		},
		{
			"buffer":0,
			"byteLength":2400,
			"byteOffset":22644,
			"target":34962
		},
		{
			"buffer":0,
			"byteLength":2400,
			"byteOffset":25044,
			"target":34962
		},
		{
			"buffer":0,
			"byteLength":1600,
			"byteOffset":27444,
			"target":34962
		}
	],
	"buffers":[
		{
			"byteLength":29044,
			"uri":"data:application/octet-stream;base64,"
		}
	]
}
