{
	"asset":{
		"generator":"Khronos glTF Blender I/O v3.6.27",
		"version":"2.0"
	},
	"scene":0,
	"scenes":[
		{
			"extras":{
				"batch_export_preferences":{},
				"gltf_batch_export_preferences":{},
				"sourceFilename":"C:\\Users\\gigar\\OneDrive\\Desktop\\blender\\test.blend"
			},
			"name":"Scene",
			"nodes":[
				0,
				1,
				2
			]
		}
	],
	"nodes":[
		{
			"extras":{
				"VariantMaterialArrayProperty":{}
			},
			"mesh":0,
			"name":"triangle_m",
			"translation":[
				0,
				4.8125,
				0
			]
		},
		{
			"extras":{
				"VariantMaterialArrayProperty":{}
			},
			"mesh":1,
			"name":"triangle_s",
			"translation":[
				0,
				4.8125,
				14.874561309814453
			]
		},
		{
			"extras":{
				"VariantMaterialArrayProperty":{}
			},
			"mesh":2,
			"name":"triangle_n",
			"translation":[
				0,
				4.8125,
				-14.875
			]
		}
	],
	"meshes":[
		{
			"name":"Cube",
			"primitives":[
				{
					"attributes":{
						"POSITION":0,
						"NORMAL":1,
						"TEXCOORD_0":2
					},
					"indices":3
				}
			]
		},
		{
			"name":"Cube.010",
			"primitives":[
				{
					"attributes":{
						"POSITION":4,
						"NORMAL":5,
						"TEXCOORD_0":6
					},
					"indices":3
				}
			]
		},
		{
			"name":"Cube.018",
			"primitives":[
				{
					"attributes":{
						"POSITION":7,
						"NORMAL":8,
						"TEXCOORD_0":9
					},
					"indices":3
				}
			]
		}
	],
	"accessors":[
		{
			"bufferView":0,
			"componentType":5126,
			"count":200,
			"max":[
				7.5,
				1.0625,
				0.12543906271457672
			],
			"min":[
				-7.5,
				-1.0625001192092896,
				-0.125
			],
			"type":"VEC3"
		},
		{
			"bufferView":1,
			"componentType":5126,
			"count":200,
			"type":"VEC3"
		},
		{
			"bufferView":2,
			"componentType":5126,
			"count":200,
			"type":"VEC2"
		},
		{
			"bufferView":3,
			"componentType":5123,
			"count":378,
			"type":"SCALAR"
		},
		{
			"bufferView":4,
			"componentType":5126,
			"count":200,
			"max":[
				7.5,
				1.0625,
				0.12543906271457672
			],
			"min":[
				-7.5,
				-1.0625001192092896,
				-0.125
			],
			"type":"VEC3"
		},
		{
			"bufferView":5,
			"componentType":5126,
			"count":200,
			"type":"VEC3"
		},
		{
			"bufferView":6,
			"componentType":5126,
			"count":200,
			"type":"VEC2"
		},
		{
			"bufferView":7,
			"componentType":5126,
			"count":200,
			"max":[
				7.5,
				1.0625,
				0.12543906271457672
			],
			"min":[
				-7.5,
				-1.0625001192092896,
				-0.125
			],
			"type":"VEC3"
		},
		{
			"bufferView":8,
			"componentType":5126,
			"count":200,
			"type":"VEC3"
		},
		{
			"bufferView":9,
			"componentType":5126,
			"count":200,
			"type":"VEC2"
		}
	],
	"bufferViews":[
		{
			"buffer":0,
			"byteLength":2400,
			"byteOffset":0,
			"target":34962
		},
		{
			"buffer":0,
			"byteLength":2400,
			"byteOffset":2400,
			"target":34962
		},
		{
			"buffer":0,
			"byteLength":1600,
			"byteOffset":4800,
			"target":34962
		},
		{
			"buffer":0,
			"byteLength":756,
			"byteOffset":6400,
			"target":34963
		},
		{
			"buffer":0,
			"byteLength":2400,
			"byteOffset":7156,
			"target":34962
		},
		{
			"buffer":0,
			"byteLength":2400,
			"byteOffset":9556,
			"target":34962
		},
		{
			"buffer":0,
			"byteLength":1600,
			"byteOffset":11956,
			"target":34962
		},
		{
			"buffer":0,
			"byteLength":2400,
			"byteOffset":13556,
			"target":34962
		},
		{
			"buffer":0,
			"byteLength":2400,
			"byteOffset":15956,
			"target":34962
		},
		{
			"buffer":0,
			"byteLength":1600,
			"byteOffset":18356,
			"target":34962
		}
	],
	"buffers":[
		{
			"byteLength":19956,
			"uri":"data:application/octet-stream;base64,"
		}
	]
}
