{
	"asset":{
		"generator":"Khronos glTF Blender I/O v3.6.27",
		"version":"2.0"
	},
	"scene":0,
	"scenes":[
		{
			"extras":{
				"batch_export_preferences":{},
				"gltf_batch_export_preferences":{},
				"sourceFilename":"C:\\Users\\gigar\\OneDrive\\Desktop\\blender\\test.blend"
			},
			"name":"Scene",
			"nodes":[
				0,
				1,
				2,
				3
			]
		}
	],
	"nodes":[
		{
			"extras":{
				"VariantMaterialArrayProperty":{}
			},
			"mesh":0,
			"name":"vertical_sw",
			"translation":[
				-7.375,
				2,
				14.875
			]
		},
		{
			"extras":{
				"VariantMaterialArrayProperty":{}
			},
			"mesh":1,
			"name":"vertical_nw",
			"translation":[
				-7.375,
				2,
				-14.875
			]
		},
		{
			"extras":{
				"VariantMaterialArrayProperty":{}
			},
			"mesh":2,
			"name":"vertical_ne",
			"translation":[
				7.375,
				2,
				14.875
			]
		},
		{
			"extras":{
				"VariantMaterialArrayProperty":{}
			},
			"mesh":3,
			"name":"vertical_se",
			"translation":[
				7.375,
				2,
				-14.875
			]
		}
	],
	"meshes":[
		{
			"name":"Cube.007",
			"primitives":[
				{
					"attributes":{
						"POSITION":0,
						"NORMAL":1,
						"TEXCOORD_0":2
					},
					"indices":3
				}
			]
		},
		{
			"name":"Cube.011",
			"primitives":[
				{
					"attributes":{
						"POSITION":4,
						"NORMAL":5,
						"TEXCOORD_0":6
					},
					"indices":7
				}
			]
		},
		{
			"name":"Cube.012",
			"primitives":[
				{
					"attributes":{
						"POSITION":8,
						"NORMAL":9,
						"TEXCOORD_0":10
					},
					"indices":7
				}
			]
		},
		{
			"name":"Cube.013",
			"primitives":[
				{
					"attributes":{
						"POSITION":11,
						"NORMAL":12,
						"TEXCOORD_0":13
					},
					"indices":7
				}
			]
		}
	],
	"accessors":[
		{
			"bufferView":0,
			"componentType":5126,
			"count":24,
			"max":[
				0.13899116218090057,
				2.014127016067505,
				0.125
			],
			"min":[
				-0.125,
				-2,
				-0.1302119344472885
			],
			"type":"VEC3"
		},
		{
			"bufferView":1,
			"componentType":5126,
			"count":24,
			"type":"VEC3"
		},
		{
			"bufferView":2,
			"componentType":5126,
			"count":24,
			"type":"VEC2"
		},
		{
			"bufferView":3,
			"componentType":5123,
			"count":36,
			"type":"SCALAR"
		},
		{
			"bufferView":4,
			"componentType":5126,
			"count":24,
			"max":[
				0.125,
				2,
				0.125
			],
			"min":[
				-0.125,
				-2,
				-0.125
			],
			"type":"VEC3"
		},
		{
			"bufferView":5,
			"componentType":5126,
			"count":24,
			"type":"VEC3"
		},
		{
			"bufferView":6,
			"componentType":5126,
			"count":24,
			"type":"VEC2"
		},
		{
			"bufferView":7,
			"componentType":5123,
			"count":36,
			"type":"SCALAR"
		},
		{
			"bufferView":8,
			"componentType":5126,
			"count":24,
			"max":[
				0.125,
				2,
				0.125
			],
			"min":[
				-0.125,
				-2,
				-0.125
			],
			"type":"VEC3"
		},
		{
			"bufferView":9,
			"componentType":5126,
			"count":24,
			"type":"VEC3"
		},
		{
			"bufferView":10,
			"componentType":5126,
			"count":24,
			"type":"VEC2"
		},
		{
			"bufferView":11,
			"componentType":5126,
			"count":24,
			"max":[
				0.125,
				2,
				0.125
			],
			"min":[
				-0.125,
				-2,
				-0.125
			],
			"type":"VEC3"
		},
		{
			"bufferView":12,
			"componentType":5126,
			"count":24,
			"type":"VEC3"
		},
		{
			"bufferView":13,
			"componentType":5126,
			"count":24,
			"type":"VEC2"
		}
	],
	"bufferViews":[
		{
			"buffer":0,
			"byteLength":288,
			"byteOffset":0,
			"target":34962
		},
		{
			"buffer":0,
			"byteLength":288,
			"byteOffset":288,
			"target":34962
		},
		{
			"buffer":0,
			"byteLength":192,
			"byteOffset":576,
			"target":34962
		},
		{
			"buffer":0,
			"byteLength":72,
			"byteOffset":768,
			"target":34963
		},
		{
			"buffer":0,
			"byteLength":288,
			"byteOffset":840,
			"target":34962
		},
		{
			"buffer":0,
			"byteLength":288,
			"byteOffset":1128,
			"target":34962
		},
		{
			"buffer":0,
			"byteLength":192,
			"byteOffset":1416,
			"target":34962
		},
		{
			"buffer":0,
			"byteLength":72,
			"byteOffset":1608,
			"target":34963
		},
		{
			"buffer":0,
			"byteLength":288,
			"byteOffset":1680,
			"target":34962
		},
		{
			"buffer":0,
			"byteLength":288,
			"byteOffset":1968,
			"target":34962
		},
		{
			"buffer":0,
			"byteLength":192,
			"byteOffset":2256,
			"target":34962
		},
		{
			"buffer":0,
			"byteLength":288,
			"byteOffset":2448,
			"target":34962
		},
		{
			"buffer":0,
			"byteLength":288,
			"byteOffset":2736,
			"target":34962
		},
		{
			"buffer":0,
			"byteLength":192,
			"byteOffset":3024,
			"target":34962
		}
	],
	"buffers":[
		{
			"byteLength":3216,
			"uri":"data:application/octet-stream;base64,"
		}
	]
}
